<?xml version="1.0" encoding="UTF-8" standalone="no"?>
<!DOCTYPE svg PUBLIC "-//W3C//DTD SVG 1.1//EN" "http://www.w3.org/Graphics/SVG/1.1/DTD/svg11.dtd">
<svg width="100%" height="100%" viewBox="0 0 215 215" version="1.1" xmlns="http://www.w3.org/2000/svg" xmlns:xlink="http://www.w3.org/1999/xlink" xml:space="preserve" xmlns:serif="http://www.serif.com/" style="fill-rule:evenodd;clip-rule:evenodd;stroke-linejoin:round;stroke-miterlimit:2;">
    <g transform="matrix(0.625425,0,0,0.625425,26.0456,179.729)">
        <g transform="matrix(76.407,0,0,76.407,-46.1527,52.5695)">
            <path d="M0.288,-0.28L0.419,0L0.57,0L0.42,-0.3C0.459,-0.315 0.49,-0.338 0.511,-0.369C0.532,-0.4 0.542,-0.439 0.542,-0.484C0.542,-0.547 0.522,-0.598 0.482,-0.635C0.442,-0.672 0.388,-0.69 0.321,-0.69L0.059,-0.69L0.059,0L0.19,0L0.19,-0.28L0.288,-0.28ZM0.19,-0.389L0.19,-0.576L0.314,-0.576C0.344,-0.576 0.368,-0.568 0.385,-0.551C0.402,-0.534 0.411,-0.512 0.411,-0.484C0.411,-0.453 0.403,-0.43 0.386,-0.414C0.369,-0.397 0.345,-0.389 0.314,-0.389L0.19,-0.389Z" style="fill-rule:nonzero;"/>
        </g>
        <g transform="matrix(1,0,0,1,-1.83665,52.5695)">
            <g transform="matrix(76.407,0,0,76.407,0,0)">
                <path d="M0.05,-0.267C0.05,-0.084 0.132,0.008 0.297,0.008C0.374,0.008 0.436,-0.014 0.482,-0.057C0.527,-0.1 0.55,-0.17 0.55,-0.267L0.55,-0.425C0.55,-0.522 0.528,-0.593 0.483,-0.636C0.438,-0.679 0.378,-0.7 0.301,-0.7C0.134,-0.7 0.05,-0.608 0.05,-0.425L0.05,-0.267ZM0.39,-0.148C0.371,-0.122 0.341,-0.109 0.301,-0.109C0.259,-0.109 0.229,-0.122 0.21,-0.147C0.191,-0.172 0.182,-0.212 0.182,-0.269L0.182,-0.418C0.182,-0.478 0.191,-0.521 0.21,-0.547C0.229,-0.572 0.259,-0.585 0.301,-0.585C0.341,-0.585 0.371,-0.572 0.39,-0.546C0.409,-0.519 0.419,-0.477 0.419,-0.418L0.419,-0.269C0.419,-0.214 0.409,-0.173 0.39,-0.148Z" style="fill-rule:nonzero;"/>
            </g>
            <g transform="matrix(76.407,0,0,76.407,45.0801,0)">
                <path d="M0.673,-0.69L0.542,-0.69L0.367,-0.309L0.19,-0.69L0.059,-0.69L0.059,0L0.19,0L0.19,-0.412L0.323,-0.133L0.411,-0.133L0.542,-0.409L0.542,0L0.673,0L0.673,-0.69Z" style="fill-rule:nonzero;"/>
            </g>
            <g transform="matrix(76.407,0,0,76.407,101.01,0)">
                <path d="M0.421,-0.134L0.463,0L0.602,0L0.356,-0.69L0.249,-0.69L0.004,0L0.142,0L0.184,-0.134L0.421,-0.134ZM0.386,-0.243L0.219,-0.243L0.302,-0.508L0.386,-0.243Z" style="fill-rule:nonzero;"/>
            </g>
            <g transform="matrix(76.407,0,0,76.407,147.313,0)">
                <path d="M0.575,-0.69L0.444,-0.69L0.444,-0.258L0.19,-0.69L0.059,-0.69L0.059,0L0.19,0L0.19,-0.431L0.444,0L0.575,0L0.575,-0.69Z" style="fill-rule:nonzero;"/>
            </g>
            <g transform="matrix(76.407,0,0,76.407,195.755,0)">
                <path d="M0.49,-0.576L0.49,-0.69L0.006,-0.69L0.006,-0.576L0.182,-0.576L0.182,0L0.314,0L0.314,-0.576L0.49,-0.576Z" style="fill-rule:nonzero;"/>
            </g>
            <g transform="matrix(76.407,0,0,76.407,233.653,0)">
                <rect x="0.065" y="-0.69" width="0.131" height="0.69"/>
            </g>
            <g transform="matrix(76.407,0,0,76.407,253.595,0)">
                <path d="M0.281,-0.307L0.452,0L0.604,0L0.365,-0.413L0.586,-0.69L0.429,-0.69L0.19,-0.368L0.19,-0.69L0.059,-0.69L0.059,0L0.19,0L0.19,-0.193L0.281,-0.307Z" style="fill-rule:nonzero;"/>
            </g>
        </g>
    </g>
    <g transform="matrix(1.01484,0,0,1.01484,-22.2574,128.441)">
        <g transform="matrix(64.006,0,0,64.006,18.6374,45.4227)">
            <path d="M0.524,-0.294C0.507,-0.321 0.483,-0.341 0.452,-0.355C0.479,-0.368 0.501,-0.388 0.516,-0.414C0.531,-0.439 0.539,-0.467 0.539,-0.498C0.539,-0.559 0.52,-0.607 0.483,-0.64C0.445,-0.673 0.392,-0.69 0.325,-0.69L0.059,-0.69L0.059,0L0.336,0C0.403,0 0.455,-0.017 0.492,-0.052C0.529,-0.087 0.548,-0.135 0.548,-0.198C0.548,-0.235 0.54,-0.267 0.524,-0.294ZM0.19,-0.576L0.315,-0.576C0.345,-0.576 0.368,-0.569 0.384,-0.554C0.399,-0.539 0.407,-0.518 0.407,-0.49C0.407,-0.464 0.399,-0.444 0.384,-0.43C0.368,-0.415 0.345,-0.408 0.315,-0.408L0.19,-0.408L0.19,-0.576ZM0.394,-0.139C0.378,-0.122 0.354,-0.114 0.323,-0.114L0.19,-0.114L0.19,-0.294L0.323,-0.294C0.354,-0.294 0.378,-0.286 0.394,-0.271C0.409,-0.256 0.417,-0.234 0.417,-0.207C0.417,-0.178 0.409,-0.155 0.394,-0.139Z" style="fill-rule:nonzero;"/>
        </g>
        <g transform="matrix(1,0,0,1,55.9524,45.4227)">
            <g transform="matrix(64.006,0,0,64.006,0,0)">
                <path d="M0.19,-0.576L0.497,-0.576L0.497,-0.69L0.059,-0.69L0.059,0L0.497,0L0.497,-0.114L0.19,-0.114L0.19,-0.291L0.452,-0.291L0.452,-0.405L0.19,-0.405L0.19,-0.576Z" style="fill-rule:nonzero;"/>
            </g>
            <g transform="matrix(64.006,0,0,64.006,34.0512,0)">
                <path d="M0.49,-0.576L0.49,-0.69L0.006,-0.69L0.006,-0.576L0.182,-0.576L0.182,0L0.314,0L0.314,-0.576L0.49,-0.576Z" style="fill-rule:nonzero;"/>
            </g>
            <g transform="matrix(64.006,0,0,64.006,63.878,0)">
                <path d="M0.05,-0.267C0.05,-0.084 0.132,0.008 0.297,0.008C0.374,0.008 0.436,-0.014 0.482,-0.057C0.527,-0.1 0.55,-0.17 0.55,-0.267L0.55,-0.425C0.55,-0.522 0.528,-0.593 0.483,-0.636C0.438,-0.679 0.378,-0.7 0.301,-0.7C0.134,-0.7 0.05,-0.608 0.05,-0.425L0.05,-0.267ZM0.39,-0.148C0.371,-0.122 0.341,-0.109 0.301,-0.109C0.259,-0.109 0.229,-0.122 0.21,-0.147C0.191,-0.172 0.182,-0.212 0.182,-0.269L0.182,-0.418C0.182,-0.478 0.191,-0.521 0.21,-0.547C0.229,-0.572 0.259,-0.585 0.301,-0.585C0.341,-0.585 0.371,-0.572 0.39,-0.546C0.409,-0.519 0.419,-0.477 0.419,-0.418L0.419,-0.269C0.419,-0.214 0.409,-0.173 0.39,-0.148Z" style="fill-rule:nonzero;"/>
            </g>
            <g transform="matrix(64.006,0,0,64.006,101.642,0)">
                <path d="M0.575,-0.69L0.444,-0.69L0.444,-0.258L0.19,-0.69L0.059,-0.69L0.059,0L0.19,0L0.19,-0.431L0.444,0L0.575,0L0.575,-0.69Z" style="fill-rule:nonzero;"/>
            </g>
            <g transform="matrix(64.006,0,0,64.006,142.221,0)">
                <path d="M0.05,-0.267C0.05,-0.084 0.134,0.008 0.301,0.008C0.467,0.008 0.55,-0.08 0.55,-0.257L0.55,-0.375L0.3,-0.375L0.3,-0.267L0.422,-0.267L0.422,-0.234C0.422,-0.192 0.413,-0.161 0.395,-0.14C0.376,-0.119 0.347,-0.109 0.307,-0.109C0.264,-0.109 0.233,-0.122 0.213,-0.147C0.192,-0.172 0.182,-0.212 0.182,-0.269L0.182,-0.418C0.182,-0.477 0.192,-0.52 0.211,-0.546C0.23,-0.572 0.26,-0.585 0.302,-0.585C0.339,-0.585 0.368,-0.575 0.389,-0.554C0.409,-0.533 0.419,-0.507 0.419,-0.476L0.419,-0.469L0.55,-0.469L0.55,-0.476C0.55,-0.546 0.528,-0.601 0.483,-0.641C0.438,-0.68 0.378,-0.7 0.303,-0.7C0.134,-0.7 0.05,-0.608 0.05,-0.425L0.05,-0.267Z" style="fill-rule:nonzero;"/>
            </g>
        </g>
    </g>
    <g transform="matrix(1,0,0,0.960269,-11.6164,-11.8094)">
        <rect x="12.105" y="12.298" width="212.014" height="130.226"/>
    </g>
</svg>
